<svg xmlns="http://www.w3.org/2000/svg" width="22" height="23.1" viewBox="0 0 22 23.1">
  <g id="book" transform="translate(-4 -3)">
    <rect id="Rectangle_1179" data-name="Rectangle 1179" width="3" height="4" rx="1.5" transform="translate(7.666 3)" fill="#fff"/>
    <rect id="Rectangle_1180" data-name="Rectangle 1180" width="3" height="4" rx="1.5" transform="translate(19.58 3)" fill="#fff"/>
    <path id="Path_5111" data-name="Path 5111" d="M4,12.56V25.133A2.193,2.193,0,0,0,6.2,27.32H23.8A2.193,2.193,0,0,0,26,25.133V12.56Zm6.6,10.933a1.1,1.1,0,0,1-1.1,1.093H8.4a1.1,1.1,0,0,1-1.1-1.093V22.4a1.1,1.1,0,0,1,1.1-1.093H9.5A1.1,1.1,0,0,1,10.6,22.4Zm0-6.013a1.1,1.1,0,0,1-1.1,1.093H8.4A1.1,1.1,0,0,1,7.3,17.48V16.387a1.1,1.1,0,0,1,1.1-1.093H9.5a1.1,1.1,0,0,1,1.1,1.093Zm6.05,6.013a1.1,1.1,0,0,1-1.1,1.093h-1.1a1.1,1.1,0,0,1-1.1-1.093V22.4a1.1,1.1,0,0,1,1.1-1.093h1.1a1.1,1.1,0,0,1,1.1,1.093Zm0-6.013a1.1,1.1,0,0,1-1.1,1.093h-1.1a1.1,1.1,0,0,1-1.1-1.093V16.387a1.1,1.1,0,0,1,1.1-1.093h1.1a1.1,1.1,0,0,1,1.1,1.093Zm6.05,6.013a1.1,1.1,0,0,1-1.1,1.093H20.5a1.1,1.1,0,0,1-1.1-1.093V22.4a1.1,1.1,0,0,1,1.1-1.093h1.1A1.1,1.1,0,0,1,22.7,22.4Zm0-6.013a1.1,1.1,0,0,1-1.1,1.093H20.5a1.1,1.1,0,0,1-1.1-1.093V16.387a1.1,1.1,0,0,1,1.1-1.093h1.1a1.1,1.1,0,0,1,1.1,1.093ZM26,11.467V8.187A2.193,2.193,0,0,0,23.8,6h-.55v.547a2.2,2.2,0,0,1-4.4,0V6h-7.7v.547a2.2,2.2,0,0,1-4.4,0V6H6.2A2.193,2.193,0,0,0,4,8.187v3.28Z" transform="translate(0 -1.22)" fill="#fff"/>
  </g>
</svg>
